<svg xmlns="http://www.w3.org/2000/svg" width="150" height="33" viewBox="0 0 150 33"><g transform="translate(-28 -9)"><rect width="30" height="30" rx="2" transform="translate(104 12)" fill="#fff"/><rect width="30" height="30" rx="15" transform="translate(28 12)" fill="#fff"/><path d="M16.285,2.858a2,2,0,0,1,3.43,0L34.183,26.971A2,2,0,0,1,32.468,30H3.532a2,2,0,0,1-1.715-3.029Z" transform="translate(61 12)" fill="#fff"/><path d="M16.853.8a2,2,0,0,1,2.294,0L34.774,11.746a2,2,0,0,1,.748,2.277L29.583,31.639A2,2,0,0,1,27.688,33H8.312a2,2,0,0,1-1.9-1.361L.478,14.023a2,2,0,0,1,.748-2.277Z" transform="translate(142 9)" fill="#fff"/></g></svg>